<?xml version="1.0" encoding="UTF-8"?>
<svg width="210mm" height="297mm" version="1.1" viewBox="0 0 210 297"
  xmlns="http://www.w3.org/2000/svg">
  <g stroke-width=".26458">
    <path d="m111.04 76.226c-2.8086 0-5.2835 1.845-6.0854 4.5366l-10.531 35.342c-0.60666 2.0357 0.91842 4.0815 3.0428 4.0815h8.0142c1.106 0 1.873 1.1025 1.4886 2.1394l-7.4089 19.986-2.706 9.7181c-0.79248 2.8459 2.9066 4.7133 4.7261 2.386l31.281-40.016c1.6296-2.0844 0.14446-5.1303-2.5014-5.1303h-8.7537c-1.3203 0-2.0635-1.5176-1.2541-2.5609l19.681-25.36c1.6187-2.086 0.13229-5.1216-2.5082-5.1216z" fill="#cca119"/>
    <path d="m91.988 76.226c-2.8086 0-5.2835 1.845-6.0856 4.5366l-10.531 35.342c-0.60666 2.0357 0.91842 4.0815 3.0428 4.0815h8.0142c1.1059 0 1.8729 1.1025 1.4885 2.1394l-7.4089 19.986-2.706 9.7181c-0.79248 2.8459 2.9066 4.7133 4.726 2.386l31.281-40.016c1.6296-2.0844 0.14446-5.1303-2.5014-5.1303h-8.7537c-1.3203 0-2.0635-1.5176-1.2541-2.5609l19.681-25.36c1.6187-2.086 0.13229-5.1216-2.5082-5.1216z" fill="#f7cf52"/>
  </g>
</svg>
