<svg width="247" height="247" viewBox="0 0 247 247" fill="none" xmlns="http://www.w3.org/2000/svg">
<path d="M0 0H26.6V3.8H0V0ZM34.2 0H41.8V3.8H34.2V0ZM45.6 0H57V3.8H45.6V0ZM64.6 0H68.4V3.8H64.6V0ZM83.6 0H95V3.8H83.6V0ZM98.8 0H102.6V3.8H98.8V0ZM110.2 0H117.8V3.8H110.2V0ZM125.4 0H129.2V3.8H125.4V0ZM133 0H140.6V3.8H133V0ZM152 0H171V3.8H152V0ZM178.6 0H190V3.8H178.6V0ZM193.8 0H197.6V3.8H193.8V0ZM201.4 0H205.2V3.8H201.4V0ZM209 0H212.8V3.8H209V0ZM220.4 0H247V3.8H220.4V0ZM0 3.8H3.8V7.6H0V3.8ZM22.8 3.8H26.6V7.6H22.8V3.8ZM30.4 3.8H34.2V7.6H30.4V3.8ZM41.8 3.8H49.4V7.6H41.8V3.8ZM53.2 3.8H64.6V7.6H53.2V3.8ZM68.4 3.8H83.6V7.6H68.4V3.8ZM87.4 3.8H95V7.6H87.4V3.8ZM102.6 3.8H110.2V7.6H102.6V3.8ZM121.6 3.8H125.4V7.6H121.6V3.8ZM136.8 3.8H140.6V7.6H136.8V3.8ZM148.2 3.8H159.6V7.6H148.2V3.8ZM163.4 3.8H167.2V7.6H163.4V3.8ZM171 3.8H178.6V7.6H171V3.8ZM186.2 3.8H201.4V7.6H186.2V3.8ZM212.8 3.8H216.6V7.6H212.8V3.8ZM220.4 3.8H224.2V7.6H220.4V3.8ZM243.2 3.8H247V7.6H243.2V3.8ZM0 7.6H3.8V11.4H0V7.6ZM7.6 7.6H19V11.4H7.6V7.6ZM22.8 7.6H26.6V11.4H22.8V7.6ZM38 7.6H41.8V11.4H38V7.6ZM45.6 7.6H49.4V11.4H45.6V7.6ZM64.6 7.6H72.2V11.4H64.6V7.6ZM87.4 7.6H98.8V11.4H87.4V7.6ZM102.6 7.6H106.4V11.4H102.6V7.6ZM110.2 7.6H114V11.4H110.2V7.6ZM117.8 7.6H121.6V11.4H117.8V7.6ZM125.4 7.6H129.2V11.4H125.4V7.6ZM140.6 7.6H144.4V11.4H140.6V7.6ZM148.2 7.6H155.8V11.4H148.2V7.6ZM163.4 7.6H174.8V11.4H163.4V7.6ZM178.6 7.6H182.4V11.4H178.6V7.6ZM197.6 7.6H201.4V11.4H197.6V7.6ZM205.2 7.6H209V11.4H205.2V7.6ZM212.8 7.6H216.6V11.4H212.8V7.6ZM220.4 7.6H224.2V11.4H220.4V7.6ZM228 7.6H239.4V11.4H228V7.6ZM243.2 7.6H247V11.4H243.2V7.6ZM0 11.4H3.8V15.2H0V11.4ZM7.6 11.4H19V15.2H7.6V11.4ZM22.8 11.4H26.6V15.2H22.8V11.4ZM30.4 11.4H34.2V15.2H30.4V11.4ZM38 11.4H41.8V15.2H38V11.4ZM57 11.4H60.8V15.2H57V11.4ZM68.4 11.4H83.6V15.2H68.4V11.4ZM106.4 11.4H110.2V15.2H106.4V11.4ZM114 11.4H117.8V15.2H114V11.4ZM129.2 11.4H144.4V15.2H129.2V11.4ZM155.8 11.4H167.2V15.2H155.8V11.4ZM171 11.4H174.8V15.2H171V11.4ZM182.4 11.4H193.8V15.2H182.4V11.4ZM205.2 11.4H212.8V15.2H205.2V11.4ZM220.4 11.4H224.2V15.2H220.4V11.4ZM228 11.4H239.4V15.2H228V11.4ZM243.2 11.4H247V15.2H243.2V11.4ZM0 15.2H3.8V19H0V15.2ZM7.6 15.2H19V19H7.6V15.2ZM22.8 15.2H26.6V19H22.8V15.2ZM41.8 15.2H45.6V19H41.8V15.2ZM49.4 15.2H53.2V19H49.4V15.2ZM57 15.2H76V19H57V15.2ZM87.4 15.2H98.8V19H87.4V15.2ZM114 15.2H133V19H114V15.2ZM136.8 15.2H140.6V19H136.8V15.2ZM159.6 15.2H163.4V19H159.6V15.2ZM171 15.2H174.8V19H171V15.2ZM182.4 15.2H186.2V19H182.4V15.2ZM197.6 15.2H205.2V19H197.6V15.2ZM212.8 15.2H216.6V19H212.8V15.2ZM220.4 15.2H224.2V19H220.4V15.2ZM228 15.2H239.4V19H228V15.2ZM243.2 15.2H247V19H243.2V15.2ZM0 19H3.8V22.8H0V19ZM22.8 19H26.6V22.8H22.8V19ZM30.4 19H34.2V22.8H30.4V19ZM45.6 19H49.4V22.8H45.6V19ZM57 19H76V22.8H57V19ZM87.4 19H95V22.8H87.4V19ZM98.8 19H102.6V22.8H98.8V19ZM110.2 19H117.8V22.8H110.2V19ZM129.2 19H133V22.8H129.2V19ZM136.8 19H148.2V22.8H136.8V19ZM155.8 19H159.6V22.8H155.8V19ZM167.2 19H171V22.8H167.2V19ZM174.8 19H197.6V22.8H174.8V19ZM201.4 19H209V22.8H201.4V19ZM220.4 19H224.2V22.8H220.4V19ZM243.2 19H247V22.8H243.2V19ZM0 22.8H26.6V26.6H0V22.8ZM30.4 22.8H34.2V26.6H30.4V22.8ZM38 22.8H41.8V26.6H38V22.8ZM45.6 22.8H49.4V26.6H45.6V22.8ZM53.2 22.8H57V26.6H53.2V22.8ZM60.8 22.8H64.6V26.6H60.8V22.8ZM68.4 22.8H72.2V26.6H68.4V22.8ZM76 22.8H79.8V26.6H76V22.8ZM83.6 22.8H87.4V26.6H83.6V22.8ZM91.2 22.8H95V26.6H91.2V22.8ZM98.8 22.8H102.6V26.6H98.8V22.8ZM106.4 22.8H110.2V26.6H106.4V22.8ZM114 22.8H117.8V26.6H114V22.8ZM121.6 22.8H125.4V26.6H121.6V22.8ZM129.2 22.8H133V26.6H129.2V22.8ZM136.8 22.8H140.6V26.6H136.8V22.8ZM144.4 22.8H148.2V26.6H144.4V22.8ZM152 22.8H155.8V26.6H152V22.8ZM159.6 22.8H163.4V26.6H159.6V22.8ZM167.2 22.8H171V26.6H167.2V22.8ZM174.8 22.8H178.6V26.6H174.8V22.8ZM182.4 22.8H186.2V26.6H182.4V22.8ZM190 22.8H193.8V26.6H190V22.8ZM197.6 22.8H201.4V26.6H197.6V22.8ZM205.2 22.8H209V26.6H205.2V22.8ZM212.8 22.8H216.6V26.6H212.8V22.8ZM220.4 22.8H247V26.6H220.4V22.8ZM49.4 26.6H60.8V30.4H49.4V26.6ZM64.6 26.6H72.2V30.4H64.6V26.6ZM79.8 26.6H95V30.4H79.8V26.6ZM102.6 26.6H117.8V30.4H102.6V26.6ZM129.2 26.6H136.8V30.4H129.2V26.6ZM152 26.6H155.8V30.4H152V26.6ZM163.4 26.6H171V30.4H163.4V26.6ZM178.6 26.6H182.4V30.4H178.6V26.6ZM197.6 26.6H201.4V30.4H197.6V26.6ZM212.8 26.6H216.6V30.4H212.8V26.6ZM0 30.4H19V34.2H0V30.4ZM22.8 30.4H45.6V34.2H22.8V30.4ZM53.2 30.4H57V34.2H53.2V30.4ZM60.8 30.4H79.8V34.2H60.8V30.4ZM87.4 30.4H91.2V34.2H87.4V30.4ZM102.6 30.4H110.2V34.2H102.6V30.4ZM114 30.4H140.6V34.2H114V30.4ZM148.2 30.4H152V34.2H148.2V30.4ZM159.6 30.4H163.4V34.2H159.6V30.4ZM178.6 30.4H186.2V34.2H178.6V30.4ZM201.4 30.4H209V34.2H201.4V30.4ZM212.8 30.4H220.4V34.2H212.8V30.4ZM224.2 30.4H228V34.2H224.2V30.4ZM231.8 30.4H235.6V34.2H231.8V30.4ZM239.4 30.4H243.2V34.2H239.4V30.4ZM0 34.2H7.6V38H0V34.2ZM19 34.2H22.8V38H19V34.2ZM26.6 34.2H34.2V38H26.6V34.2ZM38 34.2H57V38H38V34.2ZM60.8 34.2H68.4V38H60.8V34.2ZM72.2 34.2H76V38H72.2V34.2ZM83.6 34.2H102.6V38H83.6V34.2ZM110.2 34.2H121.6V38H110.2V34.2ZM140.6 34.2H144.4V38H140.6V34.2ZM152 34.2H163.4V38H152V34.2ZM186.2 34.2H190V38H186.2V34.2ZM193.8 34.2H197.6V38H193.8V34.2ZM201.4 34.2H212.8V38H201.4V34.2ZM224.2 34.2H235.6V38H224.2V34.2ZM243.2 34.2H247V38H243.2V34.2ZM3.8 38H7.6V41.8H3.8V38ZM22.8 38H30.4V41.8H22.8V38ZM38 38H45.6V41.8H38V38ZM49.4 38H53.2V41.8H49.4V38ZM57 38H72.2V41.8H57V38ZM76 38H83.6V41.8H76V38ZM95 38H98.8V41.8H95V38ZM102.6 38H110.2V41.8H102.6V38ZM125.4 38H148.2V41.8H125.4V38ZM163.4 38H178.6V41.8H163.4V38ZM182.4 38H197.6V41.8H182.4V38ZM212.8 38H216.6V41.8H212.8V38ZM220.4 38H228V41.8H220.4V38ZM231.8 38H243.2V41.8H231.8V38ZM7.6 41.8H15.2V45.6H7.6V41.8ZM19 41.8H22.8V45.6H19V41.8ZM34.2 41.8H38V45.6H34.2V41.8ZM49.4 41.8H76V45.6H49.4V41.8ZM87.4 41.8H95V45.6H87.4V41.8ZM102.6 41.8H106.4V45.6H102.6V41.8ZM110.2 41.8H125.4V45.6H110.2V41.8ZM133 41.8H136.8V45.6H133V41.8ZM140.6 41.8H144.4V45.6H140.6V41.8ZM152 41.8H155.8V45.6H152V41.8ZM163.4 41.8H174.8V45.6H163.4V41.8ZM178.6 41.8H182.4V45.6H178.6V41.8ZM190 41.8H193.8V45.6H190V41.8ZM197.6 41.8H201.4V45.6H197.6V41.8ZM216.6 41.8H220.4V45.6H216.6V41.8ZM224.2 41.8H228V45.6H224.2V41.8ZM239.4 41.8H243.2V45.6H239.4V41.8ZM19 45.6H26.6V49.4H19V45.6ZM30.4 45.6H49.4V49.4H30.4V45.6ZM60.8 45.6H72.2V49.4H60.8V45.6ZM91.2 45.6H98.8V49.4H91.2V45.6ZM102.6 45.6H106.4V49.4H102.6V45.6ZM110.2 45.6H114V49.4H110.2V45.6ZM117.8 45.6H121.6V49.4H117.8V45.6ZM133 45.6H144.4V49.4H133V45.6ZM155.8 45.6H163.4V49.4H155.8V45.6ZM174.8 45.6H186.2V49.4H174.8V45.6ZM193.8 45.6H197.6V49.4H193.8V45.6ZM201.4 45.6H220.4V49.4H201.4V45.6ZM224.2 45.6H239.4V49.4H224.2V45.6ZM0 49.4H11.4V53.2H0V49.4ZM15.2 49.4H19V53.2H15.2V49.4ZM26.6 49.4H41.8V53.2H26.6V49.4ZM53.2 49.4H68.4V53.2H53.2V49.4ZM72.2 49.4H79.8V53.2H72.2V49.4ZM83.6 49.4H91.2V53.2H83.6V49.4ZM95 49.4H102.6V53.2H95V49.4ZM106.4 49.4H114V53.2H106.4V49.4ZM121.6 49.4H125.4V53.2H121.6V49.4ZM133 49.4H140.6V53.2H133V49.4ZM148.2 49.4H152V53.2H148.2V49.4ZM155.8 49.4H167.2V53.2H155.8V49.4ZM171 49.4H174.8V53.2H171V49.4ZM186.2 49.4H190V53.2H186.2V49.4ZM193.8 49.4H212.8V53.2H193.8V49.4ZM224.2 49.4H228V53.2H224.2V49.4ZM235.6 49.4H247V53.2H235.6V49.4ZM7.6 53.2H11.4V57H7.6V53.2ZM19 53.2H38V57H19V53.2ZM49.4 53.2H60.8V57H49.4V53.2ZM64.6 53.2H72.2V57H64.6V53.2ZM76 53.2H87.4V57H76V53.2ZM95 53.2H98.8V57H95V53.2ZM102.6 53.2H110.2V57H102.6V53.2ZM121.6 53.2H159.6V57H121.6V53.2ZM167.2 53.2H171V57H167.2V53.2ZM174.8 53.2H182.4V57H174.8V53.2ZM186.2 53.2H193.8V57H186.2V53.2ZM201.4 53.2H205.2V57H201.4V53.2ZM209 53.2H212.8V57H209V53.2ZM216.6 53.2H235.6V57H216.6V53.2ZM3.8 57H7.6V60.8H3.8V57ZM11.4 57H15.2V60.8H11.4V57ZM19 57H22.8V60.8H19V57ZM38 57H45.6V60.8H38V57ZM57 57H64.6V60.8H57V57ZM68.4 57H91.2V60.8H68.4V57ZM106.4 57H114V60.8H106.4V57ZM121.6 57H125.4V60.8H121.6V57ZM129.2 57H133V60.8H129.2V57ZM136.8 57H155.8V60.8H136.8V57ZM159.6 57H171V60.8H159.6V57ZM174.8 57H182.4V60.8H174.8V57ZM190 57H193.8V60.8H190V57ZM197.6 57H201.4V60.8H197.6V57ZM212.8 57H220.4V60.8H212.8V57ZM224.2 57H228V60.8H224.2V57ZM231.8 57H235.6V60.8H231.8V57ZM239.4 57H243.2V60.8H239.4V57ZM0 60.8H3.8V64.6H0V60.8ZM11.4 60.8H15.2V64.6H11.4V60.8ZM19 60.8H34.2V64.6H19V60.8ZM38 60.8H45.6V64.6H38V60.8ZM49.4 60.8H60.8V64.6H49.4V60.8ZM64.6 60.8H79.8V64.6H64.6V60.8ZM87.4 60.8H91.2V64.6H87.4V60.8ZM106.4 60.8H110.2V64.6H106.4V60.8ZM114 60.8H121.6V64.6H114V60.8ZM125.4 60.8H129.2V64.6H125.4V60.8ZM133 60.8H136.8V64.6H133V60.8ZM144.4 60.8H148.2V64.6H144.4V60.8ZM155.8 60.8H163.4V64.6H155.8V60.8ZM171 60.8H174.8V64.6H171V60.8ZM178.6 60.8H186.2V64.6H178.6V60.8ZM193.8 60.8H197.6V64.6H193.8V60.8ZM205.2 60.8H239.4V64.6H205.2V60.8ZM243.2 60.8H247V64.6H243.2V60.8ZM0 64.6H7.6V68.4H0V64.6ZM15.2 64.6H22.8V68.4H15.2V64.6ZM34.2 64.6H68.4V68.4H34.2V64.6ZM83.6 64.6H87.4V68.4H83.6V64.6ZM91.2 64.6H102.6V68.4H91.2V64.6ZM114 64.6H125.4V68.4H114V64.6ZM140.6 64.6H163.4V68.4H140.6V64.6ZM167.2 64.6H171V68.4H167.2V64.6ZM178.6 64.6H182.4V68.4H178.6V64.6ZM193.8 64.6H209V68.4H193.8V64.6ZM216.6 64.6H220.4V68.4H216.6V64.6ZM224.2 64.6H239.4V68.4H224.2V64.6ZM243.2 64.6H247V68.4H243.2V64.6ZM0 68.4H3.8V72.2H0V68.4ZM7.6 68.4H19V72.2H7.6V68.4ZM22.8 68.4H41.8V72.2H22.8V68.4ZM45.6 68.4H53.2V72.2H45.6V68.4ZM60.8 68.4H68.4V72.2H60.8V68.4ZM72.2 68.4H79.8V72.2H72.2V68.4ZM83.6 68.4H87.4V72.2H83.6V68.4ZM95 68.4H106.4V72.2H95V68.4ZM110.2 68.4H114V72.2H110.2V68.4ZM129.2 68.4H136.8V72.2H129.2V68.4ZM155.8 68.4H159.6V72.2H155.8V68.4ZM163.4 68.4H167.2V72.2H163.4V68.4ZM174.8 68.4H178.6V72.2H174.8V68.4ZM182.4 68.4H193.8V72.2H182.4V68.4ZM197.6 68.4H201.4V72.2H197.6V68.4ZM212.8 68.4H216.6V72.2H212.8V68.4ZM220.4 68.4H228V72.2H220.4V68.4ZM235.6 68.4H239.4V72.2H235.6V68.4ZM0 72.2H3.8V76H0V72.2ZM7.6 72.2H11.4V76H7.6V72.2ZM15.2 72.2H19V76H15.2V72.2ZM30.4 72.2H41.8V76H30.4V72.2ZM45.6 72.2H60.8V76H45.6V72.2ZM72.2 72.2H76V76H72.2V72.2ZM79.8 72.2H87.4V76H79.8V72.2ZM91.2 72.2H95V76H91.2V72.2ZM98.8 72.2H106.4V76H98.8V72.2ZM110.2 72.2H125.4V76H110.2V72.2ZM129.2 72.2H136.8V76H129.2V72.2ZM144.4 72.2H155.8V76H144.4V72.2ZM163.4 72.2H171V76H163.4V72.2ZM178.6 72.2H182.4V76H178.6V72.2ZM190 72.2H201.4V76H190V72.2ZM209 72.2H212.8V76H209V72.2ZM216.6 72.2H220.4V76H216.6V72.2ZM224.2 72.2H228V76H224.2V72.2ZM231.8 72.2H235.6V76H231.8V72.2ZM243.2 72.2H247V76H243.2V72.2ZM0 76H7.6V79.8H0V76ZM11.4 76H38V79.8H11.4V76ZM45.6 76H49.4V79.8H45.6V76ZM53.2 76H60.8V79.8H53.2V76ZM64.6 76H68.4V79.8H64.6V76ZM72.2 76H79.8V79.8H72.2V76ZM83.6 76H87.4V79.8H83.6V76ZM95 76H102.6V79.8H95V76ZM106.4 76H114V79.8H106.4V76ZM125.4 76H133V79.8H125.4V76ZM136.8 76H144.4V79.8H136.8V76ZM155.8 76H167.2V79.8H155.8V76ZM171 76H174.8V79.8H171V76ZM182.4 76H186.2V79.8H182.4V76ZM205.2 76H209V79.8H205.2V76ZM212.8 76H216.6V79.8H212.8V76ZM220.4 76H224.2V79.8H220.4V76ZM228 76H231.8V79.8H228V76ZM235.6 76H243.2V79.8H235.6V76ZM3.8 79.8H22.8V83.6H3.8V79.8ZM38 79.8H41.8V83.6H38V79.8ZM49.4 79.8H53.2V83.6H49.4V79.8ZM60.8 79.8H64.6V83.6H60.8V79.8ZM68.4 79.8H76V83.6H68.4V79.8ZM79.8 79.8H83.6V83.6H79.8V79.8ZM87.4 79.8H95V83.6H87.4V79.8ZM102.6 79.8H106.4V83.6H102.6V79.8ZM110.2 79.8H114V83.6H110.2V79.8ZM129.2 79.8H144.4V83.6H129.2V79.8ZM148.2 79.8H152V83.6H148.2V79.8ZM155.8 79.8H163.4V83.6H155.8V79.8ZM167.2 79.8H171V83.6H167.2V79.8ZM178.6 79.8H186.2V83.6H178.6V79.8ZM193.8 79.8H197.6V83.6H193.8V79.8ZM205.2 79.8H212.8V83.6H205.2V79.8ZM228 79.8H231.8V83.6H228V79.8ZM243.2 79.8H247V83.6H243.2V79.8ZM0 83.6H7.6V87.4H0V83.6ZM19 83.6H41.8V87.4H19V83.6ZM57 83.6H64.6V87.4H57V83.6ZM68.4 83.6H72.2V87.4H68.4V83.6ZM76 83.6H83.6V87.4H76V83.6ZM87.4 83.6H91.2V87.4H87.4V83.6ZM95 83.6H98.8V87.4H95V83.6ZM102.6 83.6H110.2V87.4H102.6V83.6ZM114 83.6H117.8V87.4H114V83.6ZM125.4 83.6H129.2V87.4H125.4V83.6ZM136.8 83.6H140.6V87.4H136.8V83.6ZM144.4 83.6H152V87.4H144.4V83.6ZM163.4 83.6H171V87.4H163.4V83.6ZM174.8 83.6H178.6V87.4H174.8V83.6ZM182.4 83.6H197.6V87.4H182.4V83.6ZM201.4 83.6H205.2V87.4H201.4V83.6ZM209 83.6H231.8V87.4H209V83.6ZM235.6 83.6H243.2V87.4H235.6V83.6ZM0 87.4H7.6V91.2H0V87.4ZM26.6 87.4H34.2V91.2H26.6V87.4ZM38 87.4H49.4V91.2H38V87.4ZM60.8 87.4H64.6V91.2H60.8V87.4ZM68.4 87.4H83.6V91.2H68.4V87.4ZM106.4 87.4H110.2V91.2H106.4V87.4ZM114 87.4H117.8V91.2H114V87.4ZM125.4 87.4H133V91.2H125.4V87.4ZM148.2 87.4H155.8V91.2H148.2V87.4ZM167.2 87.4H174.8V91.2H167.2V87.4ZM178.6 87.4H182.4V91.2H178.6V87.4ZM186.2 87.4H190V91.2H186.2V87.4ZM197.6 87.4H209V91.2H197.6V87.4ZM231.8 87.4H235.6V91.2H231.8V87.4ZM239.4 87.4H243.2V91.2H239.4V87.4ZM0 91.2H7.6V95H0V91.2ZM15.2 91.2H19V95H15.2V91.2ZM22.8 91.2H26.6V95H22.8V91.2ZM38 91.2H41.8V95H38V91.2ZM45.6 91.2H53.2V95H45.6V91.2ZM60.8 91.2H72.2V95H60.8V91.2ZM76 91.2H79.8V95H76V91.2ZM95 91.2H98.8V95H95V91.2ZM106.4 91.2H114V95H106.4V91.2ZM117.8 91.2H125.4V95H117.8V91.2ZM129.2 91.2H144.4V95H129.2V91.2ZM159.6 91.2H167.2V95H159.6V91.2ZM182.4 91.2H186.2V95H182.4V91.2ZM190 91.2H193.8V95H190V91.2ZM201.4 91.2H247V95H201.4V91.2ZM0 95H3.8V98.8H0V95ZM7.6 95H19V98.8H7.6V95ZM30.4 95H34.2V98.8H30.4V95ZM41.8 95H45.6V98.8H41.8V95ZM49.4 95H53.2V98.8H49.4V95ZM64.6 95H68.4V98.8H64.6V95ZM72.2 95H76V98.8H72.2V95ZM79.8 95H95V98.8H79.8V95ZM98.8 95H102.6V98.8H98.8V95ZM114 95H117.8V98.8H114V95ZM121.6 95H125.4V98.8H121.6V95ZM140.6 95H144.4V98.8H140.6V95ZM148.2 95H163.4V98.8H148.2V95ZM182.4 95H190V98.8H182.4V95ZM197.6 95H209V98.8H197.6V95ZM243.2 95H247V98.8H243.2V95ZM0 98.8H7.6V102.6H0V98.8ZM11.4 98.8H15.2V102.6H11.4V98.8ZM19 98.8H26.6V102.6H19V98.8ZM30.4 98.8H38V102.6H30.4V98.8ZM41.8 98.8H45.6V102.6H41.8V98.8ZM49.4 98.8H57V102.6H49.4V98.8ZM64.6 98.8H72.2V102.6H64.6V98.8ZM76 98.8H83.6V102.6H76V98.8ZM91.2 98.8H98.8V102.6H91.2V98.8ZM102.6 98.8H106.4V102.6H102.6V98.8ZM114 98.8H125.4V102.6H114V98.8ZM129.2 98.8H133V102.6H129.2V98.8ZM140.6 98.8H152V102.6H140.6V98.8ZM163.4 98.8H171V102.6H163.4V98.8ZM174.8 98.8H178.6V102.6H174.8V98.8ZM186.2 98.8H193.8V102.6H186.2V98.8ZM201.4 98.8H205.2V102.6H201.4V98.8ZM220.4 98.8H224.2V102.6H220.4V98.8ZM239.4 98.8H243.2V102.6H239.4V98.8ZM0 102.6H15.2V106.4H0V102.6ZM30.4 102.6H34.2V106.4H30.4V102.6ZM45.6 102.6H57V106.4H45.6V102.6ZM68.4 102.6H72.2V106.4H68.4V102.6ZM87.4 102.6H95V106.4H87.4V102.6ZM98.8 102.6H110.2V106.4H98.8V102.6ZM114 102.6H117.8V106.4H114V102.6ZM121.6 102.6H125.4V106.4H121.6V102.6ZM129.2 102.6H133V106.4H129.2V102.6ZM140.6 102.6H144.4V106.4H140.6V102.6ZM152 102.6H155.8V106.4H152V102.6ZM163.4 102.6H171V106.4H163.4V102.6ZM193.8 102.6H201.4V106.4H193.8V102.6ZM205.2 102.6H209V106.4H205.2V102.6ZM212.8 102.6H216.6V106.4H212.8V102.6ZM220.4 102.6H224.2V106.4H220.4V102.6ZM231.8 102.6H235.6V106.4H231.8V102.6ZM243.2 102.6H247V106.4H243.2V102.6ZM15.2 106.4H30.4V110.2H15.2V106.4ZM38 106.4H45.6V110.2H38V106.4ZM68.4 106.4H76V110.2H68.4V106.4ZM87.4 106.4H98.8V110.2H87.4V106.4ZM110.2 106.4H114V110.2H110.2V106.4ZM117.8 106.4H121.6V110.2H117.8V106.4ZM133 106.4H140.6V110.2H133V106.4ZM144.4 106.4H152V110.2H144.4V106.4ZM155.8 106.4H167.2V110.2H155.8V106.4ZM171 106.4H174.8V110.2H171V106.4ZM178.6 106.4H190V110.2H178.6V106.4ZM201.4 106.4H205.2V110.2H201.4V106.4ZM209 106.4H231.8V110.2H209V106.4ZM235.6 106.4H243.2V110.2H235.6V106.4ZM0 110.2H3.8V114H0V110.2ZM11.4 110.2H22.8V114H11.4V110.2ZM26.6 110.2H30.4V114H26.6V110.2ZM34.2 110.2H45.6V114H34.2V110.2ZM49.4 110.2H60.8V114H49.4V110.2ZM64.6 110.2H68.4V114H64.6V110.2ZM83.6 110.2H87.4V114H83.6V110.2ZM91.2 110.2H106.4V114H91.2V110.2ZM114 110.2H117.8V114H114V110.2ZM133 110.2H140.6V114H133V110.2ZM148.2 110.2H163.4V114H148.2V110.2ZM167.2 110.2H171V114H167.2V110.2ZM178.6 110.2H182.4V114H178.6V110.2ZM186.2 110.2H190V114H186.2V110.2ZM197.6 110.2H212.8V114H197.6V110.2ZM216.6 110.2H220.4V114H216.6V110.2ZM228 110.2H231.8V114H228V110.2ZM239.4 110.2H247V114H239.4V110.2ZM0 114H11.4V117.8H0V114ZM15.2 114H38V117.8H15.2V114ZM41.8 114H49.4V117.8H41.8V114ZM53.2 114H57V117.8H53.2V114ZM64.6 114H76V117.8H64.6V114ZM79.8 114H83.6V117.8H79.8V114ZM87.4 114H98.8V117.8H87.4V114ZM114 114H136.8V117.8H114V114ZM140.6 114H159.6V117.8H140.6V114ZM163.4 114H167.2V117.8H163.4V114ZM174.8 114H193.8V117.8H174.8V114ZM209 114H231.8V117.8H209V114ZM0 117.8H7.6V121.6H0V117.8ZM11.4 117.8H19V121.6H11.4V117.8ZM30.4 117.8H38V121.6H30.4V117.8ZM41.8 117.8H45.6V121.6H41.8V117.8ZM53.2 117.8H60.8V121.6H53.2V117.8ZM64.6 117.8H72.2V121.6H64.6V117.8ZM83.6 117.8H87.4V121.6H83.6V117.8ZM91.2 117.8H95V121.6H91.2V117.8ZM102.6 117.8H106.4V121.6H102.6V117.8ZM110.2 117.8H117.8V121.6H110.2V117.8ZM129.2 117.8H140.6V121.6H129.2V117.8ZM152 117.8H155.8V121.6H152V117.8ZM159.6 117.8H182.4V121.6H159.6V117.8ZM186.2 117.8H190V121.6H186.2V117.8ZM193.8 117.8H209V121.6H193.8V117.8ZM212.8 117.8H216.6V121.6H212.8V117.8ZM228 117.8H235.6V121.6H228V117.8ZM239.4 117.8H247V121.6H239.4V117.8ZM0 121.6H3.8V125.4H0V121.6ZM7.6 121.6H11.4V125.4H7.6V121.6ZM15.2 121.6H19V125.4H15.2V121.6ZM22.8 121.6H26.6V125.4H22.8V121.6ZM30.4 121.6H34.2V125.4H30.4V121.6ZM38 121.6H41.8V125.4H38V121.6ZM53.2 121.6H57V125.4H53.2V121.6ZM60.8 121.6H64.6V125.4H60.8V121.6ZM68.4 121.6H72.2V125.4H68.4V121.6ZM76 121.6H83.6V125.4H76V121.6ZM87.4 121.6H91.2V125.4H87.4V121.6ZM95 121.6H98.8V125.4H95V121.6ZM106.4 121.6H110.2V125.4H106.4V121.6ZM114 121.6H117.8V125.4H114V121.6ZM121.6 121.6H125.4V125.4H121.6V121.6ZM129.2 121.6H133V125.4H129.2V121.6ZM136.8 121.6H144.4V125.4H136.8V121.6ZM155.8 121.6H163.4V125.4H155.8V121.6ZM182.4 121.6H186.2V125.4H182.4V121.6ZM190 121.6H193.8V125.4H190V121.6ZM201.4 121.6H205.2V125.4H201.4V121.6ZM212.8 121.6H216.6V125.4H212.8V121.6ZM220.4 121.6H224.2V125.4H220.4V121.6ZM228 121.6H243.2V125.4H228V121.6ZM7.6 125.4H19V129.2H7.6V125.4ZM30.4 125.4H38V129.2H30.4V125.4ZM45.6 125.4H49.4V129.2H45.6V125.4ZM53.2 125.4H57V129.2H53.2V125.4ZM64.6 125.4H68.4V129.2H64.6V125.4ZM72.2 125.4H76V129.2H72.2V125.4ZM83.6 125.4H87.4V129.2H83.6V125.4ZM91.2 125.4H106.4V129.2H91.2V125.4ZM114 125.4H117.8V129.2H114V125.4ZM129.2 125.4H140.6V129.2H129.2V125.4ZM148.2 125.4H152V129.2H148.2V125.4ZM155.8 125.4H163.4V129.2H155.8V125.4ZM167.2 125.4H171V129.2H167.2V125.4ZM193.8 125.4H201.4V129.2H193.8V125.4ZM205.2 125.4H209V129.2H205.2V125.4ZM212.8 125.4H216.6V129.2H212.8V125.4ZM228 125.4H231.8V129.2H228V125.4ZM243.2 125.4H247V129.2H243.2V125.4ZM3.8 129.2H7.6V133H3.8V129.2ZM11.4 129.2H38V133H11.4V129.2ZM49.4 129.2H53.2V133H49.4V129.2ZM57 129.2H60.8V133H57V129.2ZM68.4 129.2H83.6V133H68.4V129.2ZM87.4 129.2H91.2V133H87.4V129.2ZM102.6 129.2H110.2V133H102.6V129.2ZM114 129.2H133V133H114V129.2ZM136.8 129.2H144.4V133H136.8V129.2ZM148.2 129.2H155.8V133H148.2V129.2ZM174.8 129.2H193.8V133H174.8V129.2ZM201.4 129.2H205.2V133H201.4V129.2ZM212.8 129.2H231.8V133H212.8V129.2ZM235.6 129.2H239.4V133H235.6V129.2ZM0 133H3.8V136.8H0V133ZM11.4 133H15.2V136.8H11.4V133ZM30.4 133H34.2V136.8H30.4V133ZM38 133H49.4V136.8H38V133ZM64.6 133H76V136.8H64.6V133ZM91.2 133H98.8V136.8H91.2V133ZM102.6 133H106.4V136.8H102.6V133ZM110.2 133H114V136.8H110.2V133ZM117.8 133H121.6V136.8H117.8V133ZM125.4 133H136.8V136.8H125.4V133ZM140.6 133H144.4V136.8H140.6V133ZM152 133H155.8V136.8H152V133ZM167.2 133H174.8V136.8H167.2V133ZM178.6 133H182.4V136.8H178.6V133ZM190 133H193.8V136.8H190V133ZM197.6 133H216.6V136.8H197.6V133ZM220.4 133H224.2V136.8H220.4V133ZM231.8 133H235.6V136.8H231.8V133ZM243.2 133H247V136.8H243.2V133ZM0 136.8H3.8V140.6H0V136.8ZM11.4 136.8H15.2V140.6H11.4V136.8ZM19 136.8H26.6V140.6H19V136.8ZM34.2 136.8H45.6V140.6H34.2V136.8ZM57 136.8H64.6V140.6H57V136.8ZM68.4 136.8H72.2V140.6H68.4V136.8ZM76 136.8H83.6V140.6H76V136.8ZM102.6 136.8H117.8V140.6H102.6V136.8ZM121.6 136.8H144.4V140.6H121.6V136.8ZM148.2 136.8H152V140.6H148.2V136.8ZM163.4 136.8H167.2V140.6H163.4V136.8ZM178.6 136.8H190V140.6H178.6V136.8ZM201.4 136.8H205.2V140.6H201.4V136.8ZM216.6 136.8H220.4V140.6H216.6V136.8ZM235.6 136.8H243.2V140.6H235.6V136.8ZM0 140.6H3.8V144.4H0V140.6ZM11.4 140.6H22.8V144.4H11.4V140.6ZM26.6 140.6H30.4V144.4H26.6V140.6ZM41.8 140.6H45.6V144.4H41.8V140.6ZM49.4 140.6H57V144.4H49.4V140.6ZM64.6 140.6H76V144.4H64.6V140.6ZM87.4 140.6H98.8V144.4H87.4V140.6ZM114 140.6H121.6V144.4H114V140.6ZM133 140.6H144.4V144.4H133V140.6ZM152 140.6H167.2V144.4H152V140.6ZM186.2 140.6H190V144.4H186.2V140.6ZM201.4 140.6H235.6V144.4H201.4V140.6ZM243.2 140.6H247V144.4H243.2V140.6ZM11.4 144.4H19V148.2H11.4V144.4ZM22.8 144.4H26.6V148.2H22.8V144.4ZM34.2 144.4H41.8V148.2H34.2V144.4ZM45.6 144.4H49.4V148.2H45.6V144.4ZM60.8 144.4H64.6V148.2H60.8V144.4ZM68.4 144.4H72.2V148.2H68.4V144.4ZM76 144.4H83.6V148.2H76V144.4ZM87.4 144.4H91.2V148.2H87.4V144.4ZM102.6 144.4H106.4V148.2H102.6V144.4ZM110.2 144.4H114V148.2H110.2V144.4ZM125.4 144.4H129.2V148.2H125.4V144.4ZM133 144.4H136.8V148.2H133V144.4ZM144.4 144.4H148.2V148.2H144.4V144.4ZM163.4 144.4H167.2V148.2H163.4V144.4ZM174.8 144.4H197.6V148.2H174.8V144.4ZM228 144.4H239.4V148.2H228V144.4ZM0 148.2H3.8V152H0V148.2ZM11.4 148.2H15.2V152H11.4V148.2ZM26.6 148.2H30.4V152H26.6V148.2ZM34.2 148.2H38V152H34.2V148.2ZM49.4 148.2H53.2V152H49.4V148.2ZM68.4 148.2H76V152H68.4V148.2ZM83.6 148.2H87.4V152H83.6V148.2ZM95 148.2H102.6V152H95V148.2ZM110.2 148.2H121.6V152H110.2V148.2ZM129.2 148.2H136.8V152H129.2V148.2ZM152 148.2H155.8V152H152V148.2ZM167.2 148.2H174.8V152H167.2V148.2ZM186.2 148.2H190V152H186.2V148.2ZM197.6 148.2H224.2V152H197.6V148.2ZM231.8 148.2H235.6V152H231.8V148.2ZM3.8 152H7.6V155.8H3.8V152ZM22.8 152H26.6V155.8H22.8V152ZM38 152H41.8V155.8H38V152ZM49.4 152H53.2V155.8H49.4V152ZM60.8 152H64.6V155.8H60.8V152ZM68.4 152H79.8V155.8H68.4V152ZM87.4 152H91.2V155.8H87.4V152ZM95 152H98.8V155.8H95V152ZM106.4 152H110.2V155.8H106.4V152ZM114 152H129.2V155.8H114V152ZM133 152H152V155.8H133V152ZM163.4 152H167.2V155.8H163.4V152ZM178.6 152H186.2V155.8H178.6V152ZM190 152H193.8V155.8H190V152ZM201.4 152H205.2V155.8H201.4V152ZM220.4 152H228V155.8H220.4V152ZM235.6 152H239.4V155.8H235.6V152ZM3.8 155.8H15.2V159.6H3.8V155.8ZM19 155.8H22.8V159.6H19V155.8ZM30.4 155.8H34.2V159.6H30.4V155.8ZM49.4 155.8H53.2V159.6H49.4V155.8ZM64.6 155.8H68.4V159.6H64.6V155.8ZM72.2 155.8H76V159.6H72.2V155.8ZM79.8 155.8H87.4V159.6H79.8V155.8ZM91.2 155.8H95V159.6H91.2V155.8ZM98.8 155.8H102.6V159.6H98.8V155.8ZM114 155.8H117.8V159.6H114V155.8ZM133 155.8H136.8V159.6H133V155.8ZM140.6 155.8H144.4V159.6H140.6V155.8ZM152 155.8H155.8V159.6H152V155.8ZM159.6 155.8H163.4V159.6H159.6V155.8ZM167.2 155.8H174.8V159.6H167.2V155.8ZM186.2 155.8H190V159.6H186.2V155.8ZM193.8 155.8H216.6V159.6H193.8V155.8ZM228 155.8H231.8V159.6H228V155.8ZM243.2 155.8H247V159.6H243.2V155.8ZM7.6 159.6H11.4V163.4H7.6V159.6ZM15.2 159.6H30.4V163.4H15.2V159.6ZM34.2 159.6H53.2V163.4H34.2V159.6ZM68.4 159.6H72.2V163.4H68.4V159.6ZM76 159.6H79.8V163.4H76V159.6ZM98.8 159.6H102.6V163.4H98.8V159.6ZM110.2 159.6H117.8V163.4H110.2V159.6ZM125.4 159.6H129.2V163.4H125.4V159.6ZM133 159.6H148.2V163.4H133V159.6ZM155.8 159.6H159.6V163.4H155.8V159.6ZM163.4 159.6H167.2V163.4H163.4V159.6ZM174.8 159.6H186.2V163.4H174.8V159.6ZM190 159.6H193.8V163.4H190V159.6ZM197.6 159.6H205.2V163.4H197.6V159.6ZM209 159.6H216.6V163.4H209V159.6ZM224.2 159.6H235.6V163.4H224.2V159.6ZM239.4 159.6H243.2V163.4H239.4V159.6ZM3.8 163.4H7.6V167.2H3.8V163.4ZM15.2 163.4H19V167.2H15.2V163.4ZM26.6 163.4H30.4V167.2H26.6V163.4ZM34.2 163.4H49.4V167.2H34.2V163.4ZM57 163.4H60.8V167.2H57V163.4ZM68.4 163.4H83.6V167.2H68.4V163.4ZM87.4 163.4H95V167.2H87.4V163.4ZM98.8 163.4H106.4V167.2H98.8V163.4ZM121.6 163.4H125.4V167.2H121.6V163.4ZM140.6 163.4H144.4V167.2H140.6V163.4ZM148.2 163.4H163.4V167.2H148.2V163.4ZM167.2 163.4H171V167.2H167.2V163.4ZM178.6 163.4H182.4V167.2H178.6V163.4ZM190 163.4H216.6V167.2H190V163.4ZM220.4 163.4H224.2V167.2H220.4V163.4ZM228 163.4H235.6V167.2H228V163.4ZM0 167.2H26.6V171H0V167.2ZM45.6 167.2H53.2V171H45.6V167.2ZM57 167.2H60.8V171H57V167.2ZM64.6 167.2H72.2V171H64.6V167.2ZM79.8 167.2H83.6V171H79.8V167.2ZM91.2 167.2H98.8V171H91.2V167.2ZM102.6 167.2H106.4V171H102.6V167.2ZM110.2 167.2H114V171H110.2V167.2ZM117.8 167.2H121.6V171H117.8V167.2ZM125.4 167.2H129.2V171H125.4V167.2ZM133 167.2H140.6V171H133V167.2ZM163.4 167.2H167.2V171H163.4V167.2ZM171 167.2H190V171H171V167.2ZM201.4 167.2H205.2V171H201.4V167.2ZM216.6 167.2H220.4V171H216.6V167.2ZM224.2 167.2H228V171H224.2V167.2ZM235.6 167.2H243.2V171H235.6V167.2ZM3.8 171H7.6V174.8H3.8V171ZM11.4 171H15.2V174.8H11.4V171ZM19 171H22.8V174.8H19V171ZM38 171H41.8V174.8H38V171ZM45.6 171H57V174.8H45.6V171ZM60.8 171H64.6V174.8H60.8V171ZM72.2 171H79.8V174.8H72.2V171ZM83.6 171H91.2V174.8H83.6V171ZM98.8 171H102.6V174.8H98.8V171ZM106.4 171H110.2V174.8H106.4V171ZM133 171H140.6V174.8H133V171ZM148.2 171H152V174.8H148.2V171ZM155.8 171H163.4V174.8H155.8V171ZM167.2 171H171V174.8H167.2V171ZM186.2 171H190V174.8H186.2V171ZM201.4 171H209V174.8H201.4V171ZM216.6 171H235.6V174.8H216.6V171ZM239.4 171H243.2V174.8H239.4V171ZM0 174.8H7.6V178.6H0V174.8ZM22.8 174.8H26.6V178.6H22.8V174.8ZM30.4 174.8H38V178.6H30.4V174.8ZM53.2 174.8H72.2V178.6H53.2V174.8ZM76 174.8H83.6V178.6H76V174.8ZM102.6 174.8H121.6V178.6H102.6V174.8ZM125.4 174.8H129.2V178.6H125.4V174.8ZM140.6 174.8H152V178.6H140.6V174.8ZM155.8 174.8H159.6V178.6H155.8V174.8ZM167.2 174.8H171V178.6H167.2V174.8ZM174.8 174.8H178.6V178.6H174.8V174.8ZM186.2 174.8H197.6V178.6H186.2V174.8ZM201.4 174.8H205.2V178.6H201.4V174.8ZM212.8 174.8H220.4V178.6H212.8V174.8ZM224.2 174.8H231.8V178.6H224.2V174.8ZM0 178.6H15.2V182.4H0V178.6ZM19 178.6H22.8V182.4H19V178.6ZM26.6 178.6H30.4V182.4H26.6V178.6ZM34.2 178.6H41.8V182.4H34.2V178.6ZM45.6 178.6H49.4V182.4H45.6V178.6ZM53.2 178.6H57V182.4H53.2V178.6ZM60.8 178.6H68.4V182.4H60.8V178.6ZM72.2 178.6H91.2V182.4H72.2V178.6ZM95 178.6H98.8V182.4H95V178.6ZM106.4 178.6H114V182.4H106.4V178.6ZM129.2 178.6H133V182.4H129.2V178.6ZM136.8 178.6H148.2V182.4H136.8V178.6ZM152 178.6H155.8V182.4H152V178.6ZM159.6 178.6H171V182.4H159.6V178.6ZM178.6 178.6H182.4V182.4H178.6V178.6ZM197.6 178.6H216.6V182.4H197.6V178.6ZM220.4 178.6H235.6V182.4H220.4V178.6ZM0 182.4H3.8V186.2H0V182.4ZM7.6 182.4H11.4V186.2H7.6V182.4ZM19 182.4H26.6V186.2H19V182.4ZM30.4 182.4H34.2V186.2H30.4V182.4ZM38 182.4H57V186.2H38V182.4ZM60.8 182.4H72.2V186.2H60.8V182.4ZM76 182.4H83.6V186.2H76V182.4ZM87.4 182.4H91.2V186.2H87.4V182.4ZM106.4 182.4H114V186.2H106.4V182.4ZM121.6 182.4H125.4V186.2H121.6V182.4ZM133 182.4H136.8V186.2H133V182.4ZM144.4 182.4H152V186.2H144.4V182.4ZM155.8 182.4H163.4V186.2H155.8V182.4ZM171 182.4H178.6V186.2H171V182.4ZM182.4 182.4H186.2V186.2H182.4V182.4ZM193.8 182.4H197.6V186.2H193.8V182.4ZM201.4 182.4H209V186.2H201.4V182.4ZM212.8 182.4H220.4V186.2H212.8V182.4ZM224.2 182.4H228V186.2H224.2V182.4ZM235.6 182.4H243.2V186.2H235.6V182.4ZM7.6 186.2H11.4V190H7.6V186.2ZM15.2 186.2H19V190H15.2V186.2ZM26.6 186.2H30.4V190H26.6V186.2ZM34.2 186.2H45.6V190H34.2V186.2ZM72.2 186.2H76V190H72.2V186.2ZM83.6 186.2H106.4V190H83.6V186.2ZM110.2 186.2H121.6V190H110.2V186.2ZM140.6 186.2H152V190H140.6V186.2ZM155.8 186.2H163.4V190H155.8V186.2ZM167.2 186.2H171V190H167.2V186.2ZM178.6 186.2H190V190H178.6V186.2ZM193.8 186.2H209V190H193.8V186.2ZM228 186.2H231.8V190H228V186.2ZM243.2 186.2H247V190H243.2V186.2ZM11.4 190H15.2V193.8H11.4V190ZM22.8 190H38V193.8H22.8V190ZM41.8 190H45.6V193.8H41.8V190ZM53.2 190H68.4V193.8H53.2V190ZM72.2 190H79.8V193.8H72.2V190ZM83.6 190H87.4V193.8H83.6V190ZM91.2 190H102.6V193.8H91.2V190ZM106.4 190H110.2V193.8H106.4V190ZM133 190H136.8V193.8H133V190ZM148.2 190H159.6V193.8H148.2V190ZM163.4 190H167.2V193.8H163.4V190ZM174.8 190H178.6V193.8H174.8V190ZM182.4 190H201.4V193.8H182.4V190ZM209 190H216.6V193.8H209V190ZM228 190H239.4V193.8H228V190ZM0 193.8H7.6V197.6H0V193.8ZM15.2 193.8H19V197.6H15.2V193.8ZM26.6 193.8H30.4V197.6H26.6V193.8ZM41.8 193.8H45.6V197.6H41.8V193.8ZM53.2 193.8H64.6V197.6H53.2V193.8ZM79.8 193.8H87.4V197.6H79.8V193.8ZM98.8 193.8H133V197.6H98.8V193.8ZM140.6 193.8H155.8V197.6H140.6V193.8ZM163.4 193.8H171V197.6H163.4V193.8ZM178.6 193.8H182.4V197.6H178.6V193.8ZM186.2 193.8H190V197.6H186.2V193.8ZM197.6 193.8H205.2V197.6H197.6V193.8ZM209 193.8H212.8V197.6H209V193.8ZM220.4 193.8H228V197.6H220.4V193.8ZM239.4 193.8H247V197.6H239.4V193.8ZM11.4 197.6H15.2V201.4H11.4V197.6ZM22.8 197.6H26.6V201.4H22.8V197.6ZM34.2 197.6H41.8V201.4H34.2V197.6ZM45.6 197.6H49.4V201.4H45.6V197.6ZM60.8 197.6H68.4V201.4H60.8V197.6ZM76 197.6H79.8V201.4H76V197.6ZM83.6 197.6H87.4V201.4H83.6V197.6ZM95 197.6H102.6V201.4H95V197.6ZM106.4 197.6H117.8V201.4H106.4V197.6ZM121.6 197.6H129.2V201.4H121.6V197.6ZM133 197.6H140.6V201.4H133V197.6ZM144.4 197.6H148.2V201.4H144.4V197.6ZM159.6 197.6H163.4V201.4H159.6V197.6ZM171 197.6H174.8V201.4H171V197.6ZM178.6 197.6H186.2V201.4H178.6V197.6ZM190 197.6H193.8V201.4H190V197.6ZM205.2 197.6H209V201.4H205.2V197.6ZM212.8 197.6H216.6V201.4H212.8V197.6ZM224.2 197.6H228V201.4H224.2V197.6ZM231.8 197.6H247V201.4H231.8V197.6ZM0 201.4H3.8V205.2H0V201.4ZM7.6 201.4H11.4V205.2H7.6V201.4ZM30.4 201.4H41.8V205.2H30.4V201.4ZM53.2 201.4H60.8V205.2H53.2V201.4ZM68.4 201.4H76V205.2H68.4V201.4ZM79.8 201.4H83.6V205.2H79.8V201.4ZM87.4 201.4H95V205.2H87.4V201.4ZM117.8 201.4H121.6V205.2H117.8V201.4ZM129.2 201.4H140.6V205.2H129.2V201.4ZM155.8 201.4H163.4V205.2H155.8V201.4ZM167.2 201.4H171V205.2H167.2V201.4ZM178.6 201.4H186.2V205.2H178.6V201.4ZM197.6 201.4H220.4V205.2H197.6V201.4ZM228 201.4H239.4V205.2H228V201.4ZM243.2 201.4H247V205.2H243.2V201.4ZM7.6 205.2H15.2V209H7.6V205.2ZM19 205.2H26.6V209H19V205.2ZM34.2 205.2H41.8V209H34.2V205.2ZM49.4 205.2H53.2V209H49.4V205.2ZM57 205.2H60.8V209H57V205.2ZM64.6 205.2H76V209H64.6V205.2ZM91.2 205.2H95V209H91.2V205.2ZM98.8 205.2H106.4V209H98.8V205.2ZM110.2 205.2H117.8V209H110.2V205.2ZM121.6 205.2H125.4V209H121.6V205.2ZM140.6 205.2H148.2V209H140.6V205.2ZM152 205.2H155.8V209H152V205.2ZM174.8 205.2H197.6V209H174.8V205.2ZM224.2 205.2H228V209H224.2V205.2ZM231.8 205.2H235.6V209H231.8V205.2ZM239.4 205.2H243.2V209H239.4V205.2ZM0 209H3.8V212.8H0V209ZM11.4 209H15.2V212.8H11.4V209ZM26.6 209H30.4V212.8H26.6V209ZM41.8 209H45.6V212.8H41.8V209ZM53.2 209H57V212.8H53.2V209ZM64.6 209H72.2V212.8H64.6V209ZM76 209H87.4V212.8H76V209ZM98.8 209H102.6V212.8H98.8V209ZM121.6 209H136.8V212.8H121.6V209ZM152 209H174.8V212.8H152V209ZM178.6 209H182.4V212.8H178.6V209ZM186.2 209H190V212.8H186.2V209ZM193.8 209H216.6V212.8H193.8V209ZM220.4 209H224.2V212.8H220.4V209ZM228 209H235.6V212.8H228V209ZM239.4 209H243.2V212.8H239.4V209ZM3.8 212.8H11.4V216.6H3.8V212.8ZM15.2 212.8H19V216.6H15.2V212.8ZM22.8 212.8H26.6V216.6H22.8V212.8ZM30.4 212.8H41.8V216.6H30.4V212.8ZM53.2 212.8H64.6V216.6H53.2V212.8ZM68.4 212.8H72.2V216.6H68.4V212.8ZM76 212.8H79.8V216.6H76V212.8ZM87.4 212.8H91.2V216.6H87.4V212.8ZM95 212.8H98.8V216.6H95V212.8ZM102.6 212.8H140.6V216.6H102.6V212.8ZM148.2 212.8H152V216.6H148.2V212.8ZM155.8 212.8H163.4V216.6H155.8V212.8ZM174.8 212.8H186.2V216.6H174.8V212.8ZM190 212.8H193.8V216.6H190V212.8ZM201.4 212.8H205.2V216.6H201.4V212.8ZM212.8 212.8H247V216.6H212.8V212.8ZM30.4 216.6H34.2V220.4H30.4V216.6ZM38 216.6H41.8V220.4H38V216.6ZM45.6 216.6H53.2V220.4H45.6V216.6ZM64.6 216.6H68.4V220.4H64.6V216.6ZM72.2 216.6H76V220.4H72.2V216.6ZM79.8 216.6H87.4V220.4H79.8V216.6ZM91.2 216.6H102.6V220.4H91.2V216.6ZM110.2 216.6H117.8V220.4H110.2V216.6ZM129.2 216.6H140.6V220.4H129.2V216.6ZM148.2 216.6H152V220.4H148.2V216.6ZM155.8 216.6H163.4V220.4H155.8V216.6ZM167.2 216.6H171V220.4H167.2V216.6ZM178.6 216.6H190V220.4H178.6V216.6ZM197.6 216.6H209V220.4H197.6V216.6ZM212.8 216.6H216.6V220.4H212.8V216.6ZM228 216.6H231.8V220.4H228V216.6ZM239.4 216.6H247V220.4H239.4V216.6ZM0 220.4H26.6V224.2H0V220.4ZM30.4 220.4H38V224.2H30.4V220.4ZM41.8 220.4H53.2V224.2H41.8V220.4ZM57 220.4H60.8V224.2H57V220.4ZM72.2 220.4H76V224.2H72.2V220.4ZM87.4 220.4H102.6V224.2H87.4V220.4ZM114 220.4H117.8V224.2H114V220.4ZM121.6 220.4H125.4V224.2H121.6V220.4ZM129.2 220.4H148.2V224.2H129.2V220.4ZM152 220.4H155.8V224.2H152V220.4ZM167.2 220.4H197.6V224.2H167.2V220.4ZM212.8 220.4H216.6V224.2H212.8V220.4ZM220.4 220.4H224.2V224.2H220.4V220.4ZM228 220.4H239.4V224.2H228V220.4ZM0 224.2H3.8V228H0V224.2ZM22.8 224.2H26.6V228H22.8V224.2ZM34.2 224.2H38V228H34.2V224.2ZM49.4 224.2H53.2V228H49.4V224.2ZM57 224.2H68.4V228H57V224.2ZM72.2 224.2H76V228H72.2V224.2ZM83.6 224.2H95V228H83.6V224.2ZM98.8 224.2H102.6V228H98.8V224.2ZM114 224.2H117.8V228H114V224.2ZM129.2 224.2H136.8V228H129.2V224.2ZM140.6 224.2H144.4V228H140.6V224.2ZM152 224.2H163.4V228H152V224.2ZM167.2 224.2H171V228H167.2V224.2ZM178.6 224.2H182.4V228H178.6V224.2ZM190 224.2H193.8V228H190V224.2ZM197.6 224.2H201.4V228H197.6V224.2ZM205.2 224.2H209V228H205.2V224.2ZM212.8 224.2H216.6V228H212.8V224.2ZM228 224.2H235.6V228H228V224.2ZM239.4 224.2H247V228H239.4V224.2ZM0 228H3.8V231.8H0V228ZM7.6 228H19V231.8H7.6V228ZM22.8 228H26.6V231.8H22.8V228ZM30.4 228H38V231.8H30.4V228ZM45.6 228H57V231.8H45.6V228ZM64.6 228H76V231.8H64.6V228ZM87.4 228H98.8V231.8H87.4V228ZM110.2 228H133V231.8H110.2V228ZM136.8 228H140.6V231.8H136.8V228ZM144.4 228H148.2V231.8H144.4V228ZM155.8 228H167.2V231.8H155.8V228ZM171 228H186.2V231.8H171V228ZM190 228H193.8V231.8H190V228ZM201.4 228H209V231.8H201.4V228ZM212.8 228H231.8V231.8H212.8V228ZM235.6 228H239.4V231.8H235.6V228ZM0 231.8H3.8V235.6H0V231.8ZM7.6 231.8H19V235.6H7.6V231.8ZM22.8 231.8H26.6V235.6H22.8V231.8ZM30.4 231.8H38V235.6H30.4V231.8ZM45.6 231.8H60.8V235.6H45.6V231.8ZM83.6 231.8H87.4V235.6H83.6V231.8ZM91.2 231.8H95V235.6H91.2V231.8ZM98.8 231.8H106.4V235.6H98.8V231.8ZM117.8 231.8H125.4V235.6H117.8V231.8ZM129.2 231.8H133V235.6H129.2V231.8ZM136.8 231.8H140.6V235.6H136.8V231.8ZM148.2 231.8H167.2V235.6H148.2V231.8ZM178.6 231.8H186.2V235.6H178.6V231.8ZM193.8 231.8H197.6V235.6H193.8V231.8ZM201.4 231.8H220.4V235.6H201.4V231.8ZM224.2 231.8H228V235.6H224.2V231.8ZM231.8 231.8H235.6V235.6H231.8V231.8ZM239.4 231.8H243.2V235.6H239.4V231.8ZM0 235.6H3.8V239.4H0V235.6ZM7.6 235.6H19V239.4H7.6V235.6ZM22.8 235.6H26.6V239.4H22.8V235.6ZM30.4 235.6H34.2V239.4H30.4V235.6ZM41.8 235.6H45.6V239.4H41.8V235.6ZM49.4 235.6H57V239.4H49.4V235.6ZM64.6 235.6H76V239.4H64.6V235.6ZM79.8 235.6H83.6V239.4H79.8V235.6ZM87.4 235.6H95V239.4H87.4V235.6ZM114 235.6H121.6V239.4H114V235.6ZM125.4 235.6H148.2V239.4H125.4V235.6ZM152 235.6H155.8V239.4H152V235.6ZM167.2 235.6H171V239.4H167.2V235.6ZM174.8 235.6H193.8V239.4H174.8V235.6ZM209 235.6H212.8V239.4H209V235.6ZM220.4 235.6H224.2V239.4H220.4V235.6ZM228 235.6H235.6V239.4H228V235.6ZM239.4 235.6H243.2V239.4H239.4V235.6ZM0 239.4H3.8V243.2H0V239.4ZM22.8 239.4H26.6V243.2H22.8V239.4ZM30.4 239.4H34.2V243.2H30.4V239.4ZM49.4 239.4H60.8V243.2H49.4V239.4ZM64.6 239.4H68.4V243.2H64.6V239.4ZM83.6 239.4H87.4V243.2H83.6V239.4ZM91.2 239.4H95V243.2H91.2V239.4ZM102.6 239.4H106.4V243.2H102.6V239.4ZM129.2 239.4H140.6V243.2H129.2V239.4ZM148.2 239.4H155.8V243.2H148.2V239.4ZM159.6 239.4H163.4V243.2H159.6V239.4ZM167.2 239.4H174.8V243.2H167.2V239.4ZM178.6 239.4H182.4V243.2H178.6V239.4ZM193.8 239.4H209V243.2H193.8V239.4ZM216.6 239.4H220.4V243.2H216.6V239.4ZM224.2 239.4H235.6V243.2H224.2V239.4ZM239.4 239.4H243.2V243.2H239.4V239.4ZM0 243.2H26.6V247H0V243.2ZM30.4 243.2H34.2V247H30.4V243.2ZM38 243.2H45.6V247H38V243.2ZM49.4 243.2H83.6V247H49.4V243.2ZM87.4 243.2H91.2V247H87.4V243.2ZM102.6 243.2H117.8V247H102.6V243.2ZM121.6 243.2H129.2V247H121.6V243.2ZM136.8 243.2H144.4V247H136.8V243.2ZM159.6 243.2H167.2V247H159.6V243.2ZM174.8 243.2H193.8V247H174.8V243.2ZM201.4 243.2H209V247H201.4V243.2ZM220.4 243.2H231.8V247H220.4V243.2ZM235.6 243.2H239.4V247H235.6V243.2Z" fill="#111111"/>
</svg>
